<svg width="430" height="128" viewBox="0 0 430 128" fill="none" xmlns="http://www.w3.org/2000/svg">
<g clip-path="url(#clip0_2015_12)">
<path d="M110 0H18C8.05887 0 0 8.05887 0 18V110C0 119.941 8.05887 128 18 128H110C119.941 128 128 119.941 128 110V18C128 8.05887 119.941 0 110 0Z" fill="#3A2A72"/>
<g filter="url(#filter0_i_2015_12)">
<circle cx="64" cy="64" r="40" fill="#231A42"/>
</g>
<path d="M38.4558 89.3676C31.7045 82.6162 27.9117 73.4595 27.9117 63.9117C27.9117 54.3639 31.7045 45.2072 38.4558 38.4559C45.2072 31.7046 54.3639 27.9117 63.9117 27.9117C73.4595 27.9117 82.6162 31.7046 89.3675 38.4559" stroke="white" stroke-width="8" stroke-linecap="round" stroke-linejoin="round"/>
<path d="M64 74C69.5229 74 74 69.5228 74 64C74 58.4772 69.5229 54 64 54C58.4772 54 54 58.4772 54 64C54 69.5228 58.4772 74 64 74Z" fill="white"/>
<path d="M200.261 57.2727H185.841C185.739 56.0795 185.466 54.9972 185.023 54.0256C184.597 53.054 184 52.2187 183.233 51.5199C182.483 50.804 181.571 50.2585 180.497 49.8835C179.423 49.4915 178.205 49.2955 176.841 49.2955C174.455 49.2955 172.435 49.875 170.781 51.0341C169.145 52.1932 167.901 53.8551 167.048 56.0199C166.213 58.1847 165.795 60.7841 165.795 63.8182C165.795 67.0227 166.222 69.7074 167.074 71.8722C167.943 74.0199 169.196 75.6392 170.832 76.7301C172.469 77.804 174.438 78.3409 176.739 78.3409C178.051 78.3409 179.227 78.179 180.267 77.8551C181.307 77.5142 182.21 77.0284 182.977 76.3977C183.744 75.767 184.366 75.0085 184.844 74.1222C185.338 73.2187 185.67 72.2045 185.841 71.0795L200.261 71.1818C200.091 73.3977 199.469 75.6562 198.395 77.9574C197.321 80.2415 195.795 82.3551 193.818 84.2983C191.858 86.2244 189.429 87.7756 186.531 88.9517C183.634 90.1278 180.267 90.7159 176.432 90.7159C171.625 90.7159 167.312 89.6847 163.494 87.6222C159.693 85.5597 156.685 82.5256 154.469 78.5199C152.27 74.5142 151.17 69.6136 151.17 63.8182C151.17 57.9886 152.295 53.0795 154.545 49.0909C156.795 45.0852 159.83 42.0597 163.648 40.0142C167.466 37.9517 171.727 36.9205 176.432 36.9205C179.739 36.9205 182.781 37.3722 185.56 38.2756C188.338 39.179 190.776 40.5 192.872 42.2386C194.969 43.9602 196.656 46.0824 197.935 48.6051C199.213 51.1278 199.989 54.017 200.261 57.2727ZM225.836 90.7159C221.575 90.7159 217.927 89.8722 214.893 88.1847C211.859 86.4801 209.532 84.1108 207.913 81.0767C206.293 78.0256 205.484 74.4886 205.484 70.4659C205.484 66.4432 206.293 62.9148 207.913 59.8807C209.532 56.8295 211.859 54.4602 214.893 52.7727C217.927 51.0682 221.575 50.2159 225.836 50.2159C230.097 50.2159 233.745 51.0682 236.779 52.7727C239.813 54.4602 242.14 56.8295 243.759 59.8807C245.379 62.9148 246.188 66.4432 246.188 70.4659C246.188 74.4886 245.379 78.0256 243.759 81.0767C242.14 84.1108 239.813 86.4801 236.779 88.1847C233.745 89.8722 230.097 90.7159 225.836 90.7159ZM225.938 80.2841C227.131 80.2841 228.163 79.8835 229.032 79.0824C229.901 78.2812 230.575 77.1392 231.052 75.6562C231.529 74.1733 231.768 72.4091 231.768 70.3636C231.768 68.3011 231.529 66.5369 231.052 65.071C230.575 63.5881 229.901 62.446 229.032 61.6449C228.163 60.8437 227.131 60.4432 225.938 60.4432C224.677 60.4432 223.594 60.8437 222.691 61.6449C221.788 62.446 221.097 63.5881 220.62 65.071C220.143 66.5369 219.904 68.3011 219.904 70.3636C219.904 72.4091 220.143 74.1733 220.62 75.6562C221.097 77.1392 221.788 78.2812 222.691 79.0824C223.594 79.8835 224.677 80.2841 225.938 80.2841ZM290.3 50.7273L277.107 90H260.743L247.55 50.7273H262.379L268.72 76.7045H269.129L275.47 50.7273H290.3ZM311.937 90.7159C307.744 90.7159 304.13 89.9148 301.096 88.3125C298.079 86.6932 295.752 84.375 294.116 81.358C292.496 78.3239 291.687 74.6932 291.687 70.4659C291.687 66.4091 292.505 62.8636 294.141 59.8295C295.778 56.7955 298.087 54.4347 301.07 52.7472C304.053 51.0597 307.573 50.2159 311.63 50.2159C314.596 50.2159 317.281 50.6761 319.684 51.5966C322.087 52.517 324.141 53.8551 325.846 55.6108C327.55 57.3494 328.863 59.4631 329.783 61.9517C330.704 64.4403 331.164 67.2443 331.164 70.3636V73.6364H296.085V65.8636H318.175C318.158 64.7386 317.869 63.75 317.306 62.8977C316.761 62.0284 316.019 61.3551 315.082 60.8778C314.161 60.3835 313.113 60.1364 311.937 60.1364C310.795 60.1364 309.746 60.3835 308.792 60.8778C307.837 61.3551 307.07 62.0199 306.491 62.8722C305.928 63.7244 305.63 64.7216 305.596 65.8636V74.25C305.596 75.5114 305.86 76.6364 306.388 77.625C306.917 78.6136 307.675 79.3892 308.664 79.9517C309.653 80.5142 310.846 80.7955 312.244 80.7955C313.215 80.7955 314.102 80.6591 314.903 80.3864C315.721 80.1136 316.42 79.7216 316.999 79.2102C317.579 78.6818 318.005 78.0511 318.278 77.3182H331.164C330.721 80.0455 329.673 82.4148 328.019 84.4261C326.366 86.4205 324.175 87.9716 321.448 89.0795C318.738 90.1705 315.567 90.7159 311.937 90.7159ZM336.923 90V50.7273H350.628V58.1932H351.037C351.753 55.4318 352.886 53.4119 354.438 52.1335C356.006 50.8551 357.838 50.2159 359.935 50.2159C360.548 50.2159 361.153 50.267 361.75 50.3693C362.364 50.4545 362.952 50.5824 363.514 50.7528V62.7955C362.815 62.5568 361.955 62.3778 360.932 62.2585C359.909 62.1392 359.031 62.0795 358.298 62.0795C356.918 62.0795 355.673 62.3949 354.565 63.0256C353.474 63.6392 352.614 64.5085 351.983 65.6335C351.352 66.7415 351.037 68.0455 351.037 69.5455V90H336.923ZM382.256 37.6364V90H368.142V37.6364H382.256ZM398.038 104.727C396.418 104.727 394.876 104.599 393.41 104.344C391.944 104.105 390.657 103.773 389.549 103.347L392.617 93.3239C393.776 93.733 394.833 93.9972 395.788 94.1165C396.759 94.2358 397.586 94.1676 398.268 93.9119C398.967 93.6563 399.469 93.1705 399.776 92.4545L400.083 91.7386L386.276 50.7273H401.004L407.344 77.9318H407.754L414.197 50.7273H429.026L414.708 93.2727C413.992 95.4375 412.952 97.3807 411.589 99.1023C410.242 100.841 408.469 102.213 406.271 103.219C404.072 104.224 401.327 104.727 398.038 104.727Z" fill="white"/>
</g>
<defs>
<filter id="filter0_i_2015_12" x="24" y="24" width="80" height="84" filterUnits="userSpaceOnUse" color-interpolation-filters="sRGB">
<feFlood flood-opacity="0" result="BackgroundImageFix"/>
<feBlend mode="normal" in="SourceGraphic" in2="BackgroundImageFix" result="shape"/>
<feColorMatrix in="SourceAlpha" type="matrix" values="0 0 0 0 0 0 0 0 0 0 0 0 0 0 0 0 0 0 127 0" result="hardAlpha"/>
<feOffset dy="4"/>
<feGaussianBlur stdDeviation="2"/>
<feComposite in2="hardAlpha" operator="arithmetic" k2="-1" k3="1"/>
<feColorMatrix type="matrix" values="0 0 0 0 0 0 0 0 0 0 0 0 0 0 0 0 0 0 0.25 0"/>
<feBlend mode="normal" in2="shape" result="effect1_innerShadow_2015_12"/>
</filter>
<clipPath id="clip0_2015_12">
<rect width="430" height="128" fill="white"/>
</clipPath>
</defs>
</svg>
